<svg xmlns="http://www.w3.org/2000/svg" viewBox="0 0 64 64" role="img" aria-labelledby="title">
  <title id="title">biblioshiny</title>
  <defs>
    <linearGradient id="g" x1="8" y1="8" x2="56" y2="56" gradientUnits="userSpaceOnUse">
      <stop stop-color="#38BDF8"/>
      <stop offset="1" stop-color="#2563EB"/>
    </linearGradient>
  </defs>
  <rect width="64" height="64" rx="14" fill="#E0F2FE"/>
  <path d="M18 17.5h16.5c7.3 0 11.7 3.3 11.7 8.8 0 3.4-1.8 6-5 7.2 3.8 1.1 5.9 3.8 5.9 7.6 0 5.9-4.7 9.4-12.4 9.4H18v-33Zm16 13.3c3 0 4.8-1.2 4.8-3.5s-1.8-3.5-4.8-3.5h-8.2v7h8.2Zm.8 13.4c3.2 0 5-1.3 5-3.8 0-2.4-1.8-3.8-5-3.8h-9v7.6h9Z" fill="url(#g)"/>
  <circle cx="46.5" cy="17.5" r="4.5" fill="#FACC15"/>
</svg>
