<svg xmlns="http://www.w3.org/2000/svg" viewBox="0 0 64 64" role="img" aria-labelledby="title">
  <title id="title">Scite</title>
  <rect width="64" height="64" rx="14" fill="#EEF2FF"/>
  <path d="M44 22.3c-2.5-1.4-5.7-2.3-9.4-2.3-4.1 0-6.2 1.2-6.2 3.3 0 2.2 2.5 2.8 7.2 3.8 6.3 1.3 10.7 3.6 10.7 10.2 0 6.8-5.4 10.8-14.1 10.8-5 0-9.5-1.2-12.5-3.1v-7.6c3.2 2.3 7.3 3.7 11.6 3.7 4.3 0 6.5-1.2 6.5-3.5 0-2.4-2.4-3.1-7.4-4.1-6.2-1.3-10.5-3.4-10.5-9.8 0-6.5 5.2-10.5 13.8-10.5 4.4 0 7.9.8 10.3 2.1v7Z" fill="#4F46E5"/>
</svg>
